<svg id="visual" viewBox="0 0 540 960" width="540" height="960" xmlns="http://www.w3.org/2000/svg" xmlns:xlink="http://www.w3.org/1999/xlink" version="1.1"><rect x="0" y="0" width="540" height="960" fill="#d0e4ff"></rect><defs><linearGradient id="grad1_0" x1="0%" y1="0%" x2="100%" y2="100%"><stop offset="30%" stop-color="#d0e4ff" stop-opacity="1"></stop><stop offset="70%" stop-color="#d0e4ff" stop-opacity="1"></stop></linearGradient></defs><defs><linearGradient id="grad2_0" x1="0%" y1="0%" x2="100%" y2="100%"><stop offset="30%" stop-color="#d0e4ff" stop-opacity="1"></stop><stop offset="70%" stop-color="#d0e4ff" stop-opacity="1"></stop></linearGradient></defs><g transform="translate(540, 0)"><path d="M0 369C-46.9 365.2 -93.8 361.3 -145 350.2C-196.3 339 -251.9 320.5 -285 285C-318 249.4 -328.6 196.9 -353.8 146.6C-379.1 96.2 -419 48.1 -459 0L0 0Z" fill="#0061a6"></path></g><g transform="translate(0, 960)"><path d="M0 -423C62.7 -426.8 125.4 -430.6 166.8 -402.8C208.3 -375 228.5 -315.6 276.5 -276.5C324.4 -237.3 400.2 -218.4 424.1 -175.7C447.9 -132.9 420 -66.5 392 0L0 0Z" fill="#0061a6"></path></g></svg>