<svg id="visual" viewBox="0 0 1980 1280" width="1980" height="1280" xmlns="http://www.w3.org/2000/svg" xmlns:xlink="http://www.w3.org/1999/xlink" version="1.1"><rect x="0" y="0" width="1980" height="1280" fill="#d0e4ff"></rect><defs><linearGradient id="grad1_0" x1="35.4%" y1="0%" x2="100%" y2="100%"><stop offset="19.0625%" stop-color="#d0e4ff" stop-opacity="1"></stop><stop offset="80.9375%" stop-color="#d0e4ff" stop-opacity="1"></stop></linearGradient></defs><defs><linearGradient id="grad2_0" x1="0%" y1="0%" x2="64.6%" y2="100%"><stop offset="19.0625%" stop-color="#d0e4ff" stop-opacity="1"></stop><stop offset="80.9375%" stop-color="#d0e4ff" stop-opacity="1"></stop></linearGradient></defs><g transform="translate(1980, 0)"><path d="M0 875C-134.1 916.5 -268.2 957.9 -383.5 925.8C-498.7 893.6 -595 787.8 -683.1 683.1C-771.1 578.3 -850.9 474.5 -871.2 360.9C-891.5 247.2 -852.2 123.6 -813 0L0 0Z" fill="#0061a6"></path></g><g transform="translate(0, 1280)"><path d="M0 -876C138.2 -908.6 276.4 -941.3 368.1 -888.8C459.8 -836.3 505 -698.6 608.8 -608.8C712.6 -519 875 -477 925.8 -383.5C976.5 -290 915.8 -145 855 0L0 0Z" fill="#0061a6"></path></g></svg>